<svg width="16" height="19" viewBox="0 0 16 19" fill="none" xmlns="http://www.w3.org/2000/svg">
<path d="M15.6643 5.38125C16.1107 4.93482 16.1107 4.20982 15.6643 3.76339L12.2357 0.334821C11.7893 -0.111607 11.0643 -0.111607 10.6179 0.334821C10.1714 0.78125 10.1714 1.50625 10.6179 1.95268L12.0964 3.43125H1.14286C0.510714 3.43125 0 3.94196 0 4.57411C0 5.20625 0.510714 5.71696 1.14286 5.71696H12.0964L10.6179 7.19554C10.1714 7.64196 10.1714 8.36696 10.6179 8.81339C11.0643 9.25982 11.7893 9.25982 12.2357 8.81339L15.6643 5.38482V5.38125ZM3.76071 17.9527C4.20714 18.3991 4.93214 18.3991 5.37857 17.9527C5.825 17.5063 5.825 16.7812 5.37857 16.3348L3.90357 14.8598H14.8571C15.4893 14.8598 16 14.3491 16 13.717C16 13.0848 15.4893 12.5741 14.8571 12.5741H3.90357L5.38214 11.0955C5.82857 10.6491 5.82857 9.92411 5.38214 9.47768C4.93571 9.03125 4.21071 9.03125 3.76429 9.47768L0.335714 12.9062C-0.110714 13.3527 -0.110714 14.0777 0.335714 14.5241L3.76429 17.9527H3.76071Z" fill="#7A1C1C"/>
</svg>
