<svg width="20" height="18" viewBox="0 0 20 18" fill="none" xmlns="http://www.w3.org/2000/svg">
<path d="M9.99953 0C10.5543 0 11.066 0.292997 11.3473 0.773513L19.7856 15.1499C20.0708 15.6343 20.0708 16.2321 19.7935 16.7165C19.5161 17.2009 18.9965 17.5017 18.4379 17.5017H1.56121C1.00256 17.5017 0.48298 17.2009 0.20561 16.7165C-0.0717613 16.2321 -0.0678547 15.6304 0.213423 15.1499L8.65175 0.773513C8.93302 0.292997 9.44479 0 9.99953 0ZM9.99953 5.00049C9.47995 5.00049 9.06194 5.4185 9.06194 5.93808V10.3135C9.06194 10.8331 9.47995 11.2511 9.99953 11.2511C10.5191 11.2511 10.9371 10.8331 10.9371 10.3135V5.93808C10.9371 5.4185 10.5191 5.00049 9.99953 5.00049ZM11.2497 13.7513C11.2497 13.4198 11.1179 13.1018 10.8835 12.8674C10.6491 12.6329 10.3311 12.5012 9.99953 12.5012C9.66798 12.5012 9.35001 12.6329 9.11556 12.8674C8.88112 13.1018 8.74941 13.4198 8.74941 13.7513C8.74941 14.0829 8.88112 14.4009 9.11556 14.6353C9.35001 14.8698 9.66798 15.0015 9.99953 15.0015C10.3311 15.0015 10.6491 14.8698 10.8835 14.6353C11.1179 14.4009 11.2497 14.0829 11.2497 13.7513Z" fill="#7A1C1C"/>
</svg>
